<?xml version="1.0" encoding="UTF-8"?>
<svg width="401px" height="66px" viewBox="0 0 401 66" version="1.1" xmlns="http://www.w3.org/2000/svg" xmlns:xlink="http://www.w3.org/1999/xlink">
    <title>stripe-logo@2x</title>
    <g id="stripe-logo" stroke="none" stroke-width="1" fill="none" fill-rule="evenodd">
        <rect fill="#FFFFFF" x="0" y="0" width="401" height="66"></rect>
        <g id="logo">
            <path d="M50.559,32.922 C50.559,29.809 50.156,27.008 49.355,24.516 C48.555,22.027 47.402,19.914 45.898,18.188 C44.395,16.457 42.551,15.133 40.375,14.211 C38.199,13.289 35.719,12.828 32.941,12.828 C30.137,12.828 27.633,13.289 25.445,14.211 C23.254,15.133 21.41,16.457 19.902,18.188 C18.398,19.914 17.246,22.027 16.441,24.516 C15.641,27.008 15.238,29.809 15.238,32.922 C15.238,36.062 15.641,38.879 16.441,41.367 C17.246,43.859 18.398,45.969 19.902,47.699 C21.41,49.426 23.254,50.746 25.445,51.652 C27.633,52.562 30.137,53.012 32.941,53.012 C35.719,53.012 38.199,52.562 40.375,51.652 C42.551,50.746 44.395,49.426 45.898,47.699 C47.402,45.969 48.555,43.859 49.355,41.367 C50.156,38.879 50.559,36.062 50.559,32.922 M65.426,32.922 C65.426,37.473 64.645,41.707 63.082,45.625 C61.523,49.543 59.328,52.949 56.488,55.844 C53.656,58.738 50.238,61.008 46.242,62.648 C42.246,64.289 37.812,65.113 32.941,65.113 C28.074,65.113 23.633,64.289 19.625,62.648 C15.613,61.008 12.184,58.738 9.332,55.844 C6.48,52.949 4.277,49.543 2.715,45.625 C1.156,41.707 0.375,37.473 0.375,32.922 C0.375,28.371 1.156,24.137 2.715,20.215 C4.277,16.297 6.48,12.902 9.332,10.02 C12.184,7.137 15.613,4.879 19.625,3.234 C23.633,1.594 28.074,0.773 32.941,0.773 C37.812,0.773 42.246,1.602 46.242,3.258 C50.238,4.918 53.656,7.184 56.488,10.062 C59.328,12.945 61.523,16.344 63.082,20.262 C64.645,24.18 65.426,28.398 65.426,32.922" id="Fill-10" fill="#616D6E"></path>
            <path d="M106.137,47.699 C104.656,49.426 102.84,50.746 100.699,51.652 C98.551,52.559 96.109,53.012 93.371,53.012 C90.605,53.012 88.145,52.559 85.988,51.652 C83.824,50.746 82.008,49.426 80.527,47.699 C79.039,45.969 77.906,43.859 77.113,41.367 C76.324,38.879 75.93,36.059 75.93,32.922 C75.93,29.809 76.324,27.008 77.113,24.516 C77.906,22.027 79.039,19.914 80.527,18.188 C82.008,16.457 83.824,15.133 85.988,14.211 C88.145,13.289 90.605,12.828 93.371,12.828 C96.109,12.828 98.551,13.289 100.699,14.211 C102.84,15.133 104.656,16.457 106.137,18.188 C106.855,19.02 107.488,19.945 108.039,20.957 C109.105,22.918 111.777,22.684 111.777,22.684 L123.887,22.684 C123.641,21.867 123.383,21.055 123.07,20.262 C121.531,16.344 119.367,12.945 116.574,10.066 C113.781,7.184 110.414,4.918 106.477,3.258 C102.539,1.602 98.172,0.773 93.371,0.773 C88.574,0.773 84.203,1.594 80.25,3.234 C76.301,4.879 72.918,7.137 70.109,10.02 C67.301,12.902 65.129,16.297 63.59,20.215 C62.051,24.137 61.285,28.371 61.285,32.922 C61.285,37.473 62.051,41.707 63.59,45.625 C65.129,49.543 67.301,52.949 70.109,55.844 C72.918,58.738 76.301,61.008 80.25,62.648 C84.203,64.289 88.574,65.113 93.371,65.113 C98.172,65.113 102.539,64.289 106.477,62.648 C110.414,61.008 113.781,58.738 116.574,55.844 C119.367,52.949 121.531,49.543 123.07,45.625 C123.383,44.832 123.641,44.016 123.891,43.199 L111.777,43.199 C110.664,43.199 108.879,43.309 107.77,45.184 C107.328,45.93 106.953,46.75 106.137,47.699" id="Fill-11" fill="#616D6E"></path>
            <path d="M194.473,32.922 C194.473,29.809 194.07,27.008 193.27,24.516 C192.469,22.027 191.316,19.914 189.812,18.188 C188.309,16.457 186.465,15.133 184.289,14.211 C182.109,13.289 179.633,12.828 176.855,12.828 C174.047,12.828 171.547,13.289 169.359,14.211 C167.164,15.133 165.32,16.457 163.816,18.188 C162.309,19.914 161.156,22.027 160.355,24.516 C159.555,27.008 159.152,29.809 159.152,32.922 C159.152,36.062 159.555,38.879 160.355,41.367 C161.156,43.859 162.309,45.969 163.816,47.699 C165.32,49.426 167.164,50.746 169.359,51.652 C171.547,52.562 174.047,53.012 176.855,53.012 C179.633,53.012 182.109,52.562 184.289,51.652 C186.465,50.746 188.309,49.426 189.812,47.699 C191.316,45.969 192.469,43.859 193.27,41.367 C194.07,38.879 194.473,36.062 194.473,32.922 M209.34,32.922 C209.34,37.473 208.555,41.707 207,45.625 C205.434,49.543 203.238,52.949 200.402,55.844 C197.566,58.738 194.152,61.008 190.152,62.648 C186.156,64.289 181.727,65.113 176.855,65.113 C171.984,65.113 167.547,64.289 163.539,62.648 C159.523,61.008 156.094,58.738 153.246,55.844 C150.391,52.949 148.188,49.543 146.629,45.625 C145.066,41.707 144.289,37.473 144.289,32.922 C144.289,28.371 145.066,24.137 146.629,20.215 C148.188,16.297 150.391,12.902 153.246,10.02 C156.094,7.137 159.523,4.879 163.539,3.234 C167.547,1.594 171.984,0.773 176.855,0.773 C181.727,0.773 186.156,1.602 190.152,3.258 C194.152,4.918 197.566,7.184 200.402,10.062 C203.238,12.945 205.434,16.344 207,20.262 C208.555,24.18 209.34,28.398 209.34,32.922" id="Fill-12" fill="#616D6E"></path>
            <path d="M225.582,37.719 L225.582,53.402 L235.859,53.402 C237.793,53.402 239.371,53.156 240.598,52.668 C241.82,52.176 242.777,51.543 243.469,50.766 C244.16,49.988 244.637,49.109 244.895,48.129 C245.152,47.152 245.281,46.156 245.281,45.152 C245.281,43.996 245.133,42.961 244.832,42.039 C244.527,41.117 244.012,40.34 243.277,39.703 C242.539,39.07 241.566,38.582 240.355,38.234 C239.145,37.891 237.621,37.719 235.777,37.719 L225.582,37.719 Z M225.582,27.949 L233.188,27.949 C234.797,27.949 236.254,27.836 237.551,27.609 C238.844,27.375 239.949,26.977 240.855,26.398 C241.766,25.82 242.453,25.027 242.93,24.02 C243.406,23.012 243.641,21.746 243.641,20.215 C243.641,18.723 243.457,17.473 243.082,16.477 C242.707,15.488 242.129,14.688 241.352,14.082 C240.574,13.477 239.586,13.047 238.395,12.785 C237.195,12.527 235.777,12.395 234.137,12.395 L225.582,12.395 L225.582,27.949 Z M210.977,64.422 L210.977,1.465 L234.137,1.465 C238.488,1.465 242.188,1.867 245.242,2.672 C248.293,3.48 250.785,4.617 252.715,6.09 C254.645,7.555 256.051,9.344 256.93,11.445 C257.809,13.551 258.25,15.898 258.25,18.488 C258.25,19.898 258.047,21.262 257.645,22.57 C257.238,23.883 256.605,25.113 255.738,26.27 C254.875,27.418 253.77,28.461 252.414,29.402 C251.062,30.336 249.434,31.148 247.527,31.84 C251.68,32.852 254.746,34.484 256.738,36.746 C258.723,39.008 259.715,41.906 259.715,45.453 C259.715,48.129 259.195,50.621 258.16,52.926 C257.121,55.23 255.602,57.238 253.602,58.957 C251.602,60.668 249.129,62.008 246.191,62.973 C243.254,63.938 239.898,64.422 236.121,64.422 L210.977,64.422 Z" id="Fill-13" fill="#616D6E"></path>
            <polygon id="Fill-14" fill="#616D6E" points="302.359 1.461 302.359 12.699 276.52 12.699 276.52 27.391 296.309 27.391 296.309 38.191 276.52 38.191 276.52 53.184 302.359 53.184 302.359 64.422 261.828 64.422 261.828 1.461"></polygon>
            <path d="M319.762,31.062 L325.641,31.062 C327.625,31.062 329.32,30.812 330.715,30.309 C332.113,29.801 333.258,29.105 334.152,28.211 C335.047,27.32 335.691,26.273 336.098,25.082 C336.496,23.883 336.703,22.594 336.703,21.211 C336.703,18.449 335.801,16.285 334,14.73 C332.199,13.172 329.414,12.395 325.641,12.395 L319.762,12.395 L319.762,31.062 Z M319.762,41.133 L319.762,64.422 L305.16,64.422 L305.16,1.461 L325.641,1.461 C330.188,1.461 334.07,1.934 337.285,2.871 C340.496,3.805 343.121,5.109 345.148,6.781 C347.18,8.453 348.652,10.422 349.578,12.699 C350.5,14.973 350.961,17.453 350.961,20.133 C350.961,22.18 350.688,24.105 350.137,25.918 C349.594,27.734 348.777,29.414 347.699,30.957 C346.617,32.496 345.293,33.871 343.723,35.082 C342.152,36.293 340.344,37.285 338.297,38.062 C339.277,38.555 340.195,39.16 341.043,39.875 C341.891,40.598 342.633,41.477 343.273,42.512 L356.664,64.422 L343.445,64.422 C340.992,64.422 339.238,63.5 338.172,61.656 L327.715,43.379 C327.254,42.57 326.711,41.996 326.09,41.648 C325.477,41.305 324.602,41.133 323.48,41.133 L319.762,41.133 Z" id="Fill-15" fill="#616D6E"></path>
            <path d="M127.703,1.461 L127.703,26.707 L111.66,26.707 C110.207,26.707 109.031,27.832 109.031,29.223 L109.031,36.66 C109.031,38.051 110.207,39.18 111.66,39.18 L127.703,39.18 L127.703,64.422 L142.309,64.422 L142.309,1.461 L127.703,1.461 Z" id="Fill-16" fill="#616D6E"></path>
            <path d="M374.207,0.777 C366.727,0.617 352.75,18.027 352.184,35.715 C351.652,52.297 366.004,63.672 372.18,65.113 C372.352,57.312 372.984,28.582 373.09,25.234 C373.312,18.387 373.656,7.734 374.812,7.379 C375.477,7.176 376.383,13.164 376.273,16.703 C376.25,17.379 376.242,19.566 376.242,22.672 C377.492,21.414 378.801,20.113 379.594,19.344 C381.77,17.234 382.734,17.484 381.688,19.367 C381.047,20.523 378.281,24.375 376.25,27.164 C376.258,32.789 376.285,39.871 376.312,46.473 C379.184,43.156 382.699,39.184 384.543,37.414 C388.418,33.711 388.828,34.18 387,38.066 C385.879,40.449 380.387,46.801 376.332,51.812 C376.355,57.668 376.379,62.594 376.383,64.941 C387.254,62.582 401.855,47.734 400.855,31.594 C399.836,15.156 381.684,0.934 374.207,0.777 Z" id="Fill-17" fill="#DD7139"></path>
        </g>
    </g>
</svg>