<svg width="184" height="18" viewBox="0 0 184 18" fill="none" xmlns="http://www.w3.org/2000/svg">
<g id="Vector">
<path d="M158.66 5.52131H141.499V7.18296H154.049V11.424H141.472V12.9844H158.648V17.7448H135.248V0.991966H158.657V5.52352L158.66 5.52131Z" fill="#1A1A1A"/>
<path d="M166.487 17.6942C164.694 17.6986 162.302 17.6942 160.403 17.6942V0.890725C160.814 0.890725 161.212 0.890725 161.612 0.890725C167.489 0.890725 173.365 0.890725 179.242 0.897327C182.219 0.899528 183.952 2.61179 183.97 5.55653C183.972 6.03411 183.943 6.5117 183.974 6.98708C184.082 8.5959 183.922 10.0881 182.125 10.9596C184.648 12.8083 183.729 15.3393 183.936 17.7228H177.69C177.69 16.8051 177.679 15.9005 177.692 14.996C177.706 14.142 177.301 13.6799 176.423 13.6777C173.169 13.6711 169.918 13.6755 166.487 13.6755V17.6942ZM166.46 5.79422C166.46 6.66576 166.46 7.93949 166.46 8.71695C169.595 8.75436 173.419 8.74776 176.553 8.73015C177.517 8.72575 177.926 8.21296 177.944 7.26439C177.962 6.30922 177.564 5.80302 176.593 5.80082C173.277 5.78982 169.961 5.79642 166.46 5.79642V5.79422Z" fill="#1A1A1A"/>
<path d="M47.5084 10.9684C50.0271 12.8391 49.0655 15.3613 49.3238 17.7316H43.0867C43.0867 16.8359 43.0733 15.9335 43.0912 15.0334C43.1092 14.1795 42.707 13.6975 41.8353 13.6931C38.5482 13.6777 35.2612 13.6865 31.8595 13.6865V17.7316H25.755V0.881923C26.2785 0.881923 26.82 0.881923 27.3637 0.881923C33.0908 0.884124 38.8201 0.886322 44.5472 0.892925C47.6185 0.897326 49.3149 2.56997 49.3306 5.59834C49.3328 6.22119 49.2856 6.84843 49.3373 7.46907C49.4564 8.94364 49.0632 10.1607 47.5084 10.9706V10.9684ZM31.864 8.57829C32.0056 8.63332 32.1067 8.70815 32.21 8.70815C35.4634 8.71915 38.7145 8.73016 41.9678 8.71915C42.8711 8.71695 43.3114 8.25917 43.2979 7.33262C43.2822 6.07593 43.0643 5.80963 41.5814 5.79422C38.5527 5.76341 35.524 5.77661 32.4954 5.78102C32.2864 5.78102 32.0775 5.86465 31.864 5.91087V8.57829Z" fill="#1A1A1A"/>
<path d="M94.7158 11.2611V0.980962H100.885V17.8109C98.6769 17.8153 95.3253 17.8285 93.1093 17.8285C92.4128 17.8417 91.9545 17.648 91.4984 17.1022C88.8652 13.955 86.1847 10.8474 83.5178 7.72877C83.401 7.59232 83.2706 7.46687 82.9314 7.10813V17.7404H76.7999V0.897328C78.476 0.897328 80.1767 0.853312 81.808 0.853312C84.6104 0.853317 86.4296 1.55098 88.0428 3.74963C89.9975 6.41706 92.3095 8.83359 94.4664 11.358L94.7136 11.2633L94.7158 11.2611Z" fill="#1A1A1A"/>
<path d="M69.6618 17.5908C67.0102 17.593 58.008 17.6216 55.2778 17.6216C52.5476 17.6216 51.0786 15.6166 50.8337 12.9338C50.609 10.4688 50.6652 7.94885 50.8876 5.4795C51.0988 3.1466 52.8353 0.892922 55.2778 0.892922C59.0187 0.892922 65.7671 0.892919 69.6618 0.892922C73.5261 0.892922 75.1462 3.34907 75.162 7.23137C75.1687 8.69714 75.1709 10.1651 75.162 11.6309C75.135 15.3657 73.5261 17.5908 69.6618 17.5908ZM62.9619 12.8391V12.8171C64.3077 12.8171 65.6535 12.8347 66.9994 12.8105C68.0598 12.7907 68.7002 12.2251 68.7608 11.1951C68.8305 10.0287 68.8485 8.8512 68.7788 7.68475C68.7204 6.71197 68.161 5.94388 67.1139 5.92187C64.3144 5.86025 61.5127 5.86685 58.7154 5.93287C57.7987 5.95488 57.2056 6.58212 57.1562 7.51748C57.0977 8.64872 57.0461 9.78656 57.1135 10.9156C57.2011 12.3792 57.6145 12.7555 59.1468 12.8237C60.4163 12.881 61.6902 12.8347 62.9619 12.8347V12.8391Z" fill="#1A1A1A"/>
<path d="M6.15172 12.3219V17.7294H0V0.961154H24.0587V5.68858H6.23036V7.69795H19.4662V12.3241H6.15172V12.3219Z" fill="#1A1A1A"/>
<path d="M125.859 0.939144V5.77221C123.684 5.77221 119.466 5.77221 117.31 5.77221C117.31 8.5959 117.31 13.4686 117.312 16.2923C117.312 16.7589 117.312 17.2254 117.312 17.7514H111.131V5.81403H102.62V0.939144H125.859Z" fill="#1A1A1A"/>
<path d="M127.566 0.829102H133.563V17.758H127.566V0.829102Z" fill="#1A1A1A"/>
</g>
</svg>
